<?xml version="1.0" encoding="UTF-8" ?>
<!DOCTYPE svg PUBLIC "-//W3C//DTD SVG 1.1//EN" "http://www.w3.org/Graphics/SVG/1.1/DTD/svg11.dtd">
<svg width="1000pt" height="703pt" viewBox="0 0 1000 703" version="1.1" xmlns="http://www.w3.org/2000/svg">
<g id="#f5cd56ff">
<path fill="#f5cd56" opacity="1.00" d=" M 790.23 306.22 C 802.57 298.30 819.59 299.26 831.22 308.08 C 829.66 310.19 827.33 312.17 827.54 315.05 C 827.64 316.73 827.89 318.41 828.16 320.08 C 827.87 320.27 827.30 320.64 827.01 320.82 C 822.47 316.33 816.51 312.97 809.96 313.20 C 797.73 312.27 786.23 322.80 785.67 334.95 C 785.43 343.94 785.54 352.95 785.61 361.94 C 785.63 371.05 791.79 379.44 799.99 383.07 C 804.33 384.99 809.24 385.16 813.89 384.49 C 821.72 383.06 828.43 377.18 831.40 369.86 C 834.19 361.88 832.80 353.27 833.12 344.99 C 833.23 343.42 832.96 341.80 833.41 340.27 C 835.75 337.56 838.45 335.19 840.92 332.60 C 842.33 332.74 843.74 332.87 845.16 333.01 C 845.24 342.98 845.25 352.96 845.19 362.94 C 844.78 378.03 833.56 391.99 818.99 395.79 C 809.66 398.47 799.25 397.19 790.96 392.10 C 780.90 386.43 774.18 375.45 773.40 363.98 C 773.30 354.99 773.41 345.99 773.35 337.00 C 772.98 324.72 779.79 312.62 790.23 306.22 Z" />
<path fill="#f5cd56" opacity="1.00" d=" M 834.38 315.06 C 839.01 310.54 843.51 305.88 848.14 301.36 C 848.51 304.72 848.97 308.06 849.46 311.40 C 852.75 311.76 856.03 312.21 859.30 312.75 C 854.81 317.20 850.51 321.87 845.83 326.12 C 843.37 325.93 840.91 325.61 838.48 325.24 C 830.27 333.45 822.16 341.78 813.80 349.84 C 812.34 351.74 809.15 348.77 810.87 347.18 C 818.91 338.68 827.42 330.61 835.60 322.23 C 835.19 319.84 834.74 317.45 834.38 315.06 Z" />
<path fill="#f5cd56" opacity="1.00" d=" M 791.31 339.98 C 791.16 331.65 797.84 323.97 806.02 322.68 C 811.44 321.49 816.95 323.47 821.27 326.73 C 818.43 329.67 815.51 332.51 812.64 335.41 C 809.31 333.78 804.77 335.04 803.85 338.91 C 803.34 345.27 803.59 351.68 803.70 358.05 C 803.77 361.90 808.69 364.58 811.95 362.49 C 814.19 361.60 814.59 359.01 815.40 357.04 C 820.06 354.46 823.19 350.01 827.17 346.58 C 826.92 352.89 828.38 359.67 825.37 365.54 C 821.75 373.12 812.27 377.39 804.24 374.77 C 797.63 373.01 792.48 367.04 791.49 360.31 C 791.07 353.55 791.42 346.75 791.31 339.98 Z" />
</g>
<g id="#f5cd55ff">
<path fill="#f5cd55" opacity="1.00" d=" M 696.43 305.38 C 704.31 305.38 712.19 305.38 720.07 305.38 C 720.07 323.62 720.07 341.86 720.07 360.09 C 723.45 360.09 726.83 360.09 730.22 360.09 C 730.22 366.20 730.22 372.30 730.22 378.41 C 726.83 378.41 723.45 378.41 720.07 378.41 C 720.07 383.77 720.07 389.13 720.07 394.50 C 713.01 394.50 705.96 394.50 698.91 394.50 C 698.90 389.13 698.90 383.77 698.91 378.41 C 685.04 378.41 671.17 378.41 657.31 378.41 C 657.31 372.71 657.31 367.02 657.31 361.33 C 670.35 342.68 683.39 324.03 696.43 305.38 M 679.60 360.09 C 686.53 360.09 693.46 360.09 700.39 360.09 C 700.39 349.62 700.39 339.15 700.39 328.68 C 693.44 339.14 686.52 349.62 679.60 360.09 Z" />
<path fill="#f5cd55" opacity="1.00" d=" M 748.21 373.12 C 755.29 370.53 764.69 374.95 765.15 382.99 C 766.16 390.21 759.02 396.22 752.10 395.49 C 745.90 395.63 739.79 390.46 740.08 384.03 C 739.93 379.08 743.52 374.50 748.21 373.12 Z" />
</g>
<g id="#ffffffff">
<path fill="#ffffff" opacity="1.00" d=" M 162.11 312.14 C 174.13 305.58 188.99 305.06 201.84 309.40 C 213.37 313.32 222.39 323.27 225.29 335.08 C 217.52 335.09 209.75 335.09 201.99 335.08 C 194.85 323.02 175.31 323.45 167.22 334.24 C 161.84 341.16 161.26 350.67 163.00 358.98 C 164.56 366.48 170.23 373.06 177.67 375.18 C 185.05 377.29 193.79 377.05 200.07 372.16 C 203.74 369.42 206.00 365.30 207.63 361.11 C 198.65 361.04 189.67 361.10 180.69 361.08 C 180.69 355.88 180.69 350.68 180.69 345.49 C 196.04 345.48 211.39 345.49 226.74 345.48 C 226.57 352.25 227.05 359.06 226.51 365.80 C 223.35 375.95 216.03 384.71 206.68 389.75 C 197.10 395.16 185.53 396.16 174.85 394.17 C 163.46 392.02 152.92 385.11 146.97 375.09 C 140.65 364.77 139.33 351.96 141.67 340.23 C 144.05 328.52 151.53 317.83 162.11 312.14 Z" />
<path fill="#ffffff" opacity="1.00" d=" M 312.27 313.04 C 320.35 306.89 331.08 305.68 340.91 306.73 C 349.50 307.62 358.29 311.46 363.24 318.81 C 366.01 322.78 367.05 327.61 367.54 332.35 C 359.95 332.40 352.36 332.34 344.77 332.38 C 344.12 330.18 343.68 327.72 341.86 326.13 C 338.44 322.94 332.78 322.38 328.78 324.75 C 324.27 327.58 324.60 335.23 329.36 337.67 C 339.61 343.56 352.41 344.48 361.54 352.42 C 371.56 360.89 370.33 377.68 361.34 386.44 C 354.27 393.54 343.78 395.91 334.05 395.30 C 324.47 394.85 314.32 391.55 308.22 383.77 C 304.68 379.49 303.21 373.95 302.84 368.51 C 310.32 368.49 317.81 368.53 325.29 368.49 C 325.96 372.37 327.92 376.52 332.00 377.74 C 337.12 379.47 345.01 378.16 346.24 371.96 C 347.41 367.41 343.78 363.63 339.93 361.94 C 330.48 357.65 319.47 356.50 311.17 349.88 C 299.79 341.04 300.72 321.33 312.27 313.04 Z" />
<path fill="#ffffff" opacity="1.00" d=" M 484.51 307.69 C 496.39 304.89 509.46 306.55 519.88 313.05 C 529.55 318.91 536.53 328.89 539.00 339.90 C 541.81 352.51 539.76 366.46 532.13 377.06 C 524.30 388.42 510.67 395.21 496.95 395.34 C 482.56 395.89 467.92 389.24 459.51 377.44 C 451.82 367.11 449.52 353.41 452.08 340.92 C 455.23 324.76 468.51 311.35 484.51 307.69 M 488.43 326.54 C 480.76 328.61 475.07 335.51 473.54 343.18 C 471.92 351.34 472.54 360.55 477.59 367.46 C 485.79 378.94 505.44 379.03 513.69 367.55 C 518.46 361.20 519.34 352.74 518.21 345.08 C 517.31 338.84 514.02 332.81 508.73 329.24 C 502.86 325.25 495.16 324.76 488.43 326.54 Z" />
<path fill="#ffffff" opacity="1.00" d=" M 238.42 394.50 C 238.42 365.54 238.42 336.57 238.42 307.61 C 256.16 307.61 273.91 307.61 291.65 307.61 C 291.65 313.26 291.64 318.91 291.65 324.57 C 280.96 324.57 270.27 324.57 259.58 324.57 C 259.58 330.42 259.58 336.28 259.58 342.14 C 269.03 342.14 278.48 342.14 287.93 342.14 C 287.93 347.59 287.93 353.04 287.93 358.48 C 278.48 358.49 269.03 358.48 259.59 358.49 C 259.58 364.84 259.58 371.19 259.58 377.55 C 270.27 377.54 280.96 377.55 291.65 377.54 C 291.65 383.20 291.64 388.85 291.65 394.50 C 273.91 394.50 256.16 394.50 238.42 394.50 Z" />
<path fill="#ffffff" opacity="1.00" d=" M 376.84 307.61 C 399.25 307.61 421.65 307.61 444.05 307.61 C 444.05 313.26 444.05 318.91 444.06 324.57 C 436.38 324.57 428.70 324.57 421.03 324.57 C 421.03 347.88 421.02 371.19 421.04 394.50 C 413.98 394.50 406.92 394.50 399.87 394.50 C 399.87 371.19 399.87 347.88 399.87 324.57 C 392.19 324.57 384.52 324.57 376.84 324.57 C 376.84 318.91 376.84 313.26 376.84 307.61 Z" />
<path fill="#ffffff" opacity="1.00" d=" M 552.04 307.61 C 564.36 307.63 576.68 307.56 589.00 307.64 C 597.28 307.76 605.94 310.14 612.02 316.03 C 621.70 325.55 622.08 342.83 612.73 352.71 C 609.40 356.39 604.83 358.57 600.22 360.17 C 606.93 371.60 613.57 383.06 620.25 394.50 C 612.28 394.50 604.31 394.51 596.34 394.49 C 590.34 383.55 584.30 372.63 578.28 361.70 C 576.58 361.69 574.89 361.70 573.21 361.70 C 573.21 372.64 573.21 383.57 573.21 394.50 C 566.15 394.50 559.10 394.50 552.04 394.50 C 552.04 365.54 552.04 336.57 552.04 307.61 M 573.21 325.19 C 573.21 332.37 573.21 339.55 573.21 346.73 C 579.18 346.46 585.28 347.36 591.16 346.10 C 600.26 343.73 600.35 328.30 591.26 325.85 C 585.35 324.54 579.21 325.46 573.21 325.19 Z" />
</g>
</svg>
